Coordinates
version=1
nRows=11
nColumns=63
inDegrees=yes

Units are S.I. units (second, meters, Newtons, ...)
If the header above contains a line with 'inDegrees', this indicates whether rotational values are in degrees (yes) or radians (no).

endheader
time	pelvis_tilt	pelvis_list	pelvis_rotation	pelvis_tx	pelvis_ty	pelvis_tz	hip_flexion_r	hip_adduction_r	hip_rotation_r	knee_angle_r	knee_angle_r_beta	ankle_angle_r	subtalar_angle_r	mtp_angle_r	hip_flexion_l	hip_adduction_l	hip_rotation_l	knee_angle_l	knee_angle_l_beta	ankle_angle_l	subtalar_angle_l	mtp_angle_l	L5_S1_Flex_Ext	L5_S1_Lat_Bending	L5_S1_axial_rotation	L4_L5_Flex_Ext	L4_L5_Lat_Bending	L4_L5_axial_rotation	L3_L4_Flex_Ext	L3_L4_Lat_Bending	L3_L4_axial_rotation	L2_L3_Flex_Ext	L2_L3_Lat_Bending	L2_L3_axial_rotation	L1_L2_Flex_Ext	L1_L2_Lat_Bending	L1_L2_axial_rotation	L1_T12_Flex_Ext	L1_T12_Lat_Bending	L1_T12_axial_rotation	Abs_r3	Abs_r2	Abs_r1	Abs_t1	Abs_t2	neck_flexion	neck_bending	neck_rotation	arm_flex_r	arm_add_r	arm_rot_r	elbow_flex_r	pro_sup_r	wrist_flex_r	wrist_dev_r	arm_flex_l	arm_add_l	arm_rot_l	elbow_flex_l	pro_sup_l	wrist_flex_l	wrist_dev_l
      4.08771930	     -1.34267728	     -2.92168144	     98.06670759	      0.05875471	      0.96404414	      0.24211391	     -0.87976625	     -1.85784535	    -23.13952196	     13.26538679	      0.23152468	     17.03919932	      4.20422591	      0.00000000	     -1.54944030	      1.98124201	      7.25709947	      8.88494731	      0.15507158	      7.79454224	    -10.12423307	      0.00000000	     -0.05005664	      0.08986868	      0.23617159	     -0.09296019	      0.11952535	      0.25093231	     -0.08223806	      0.21850671	      0.25093231	     -0.05720974	      0.21850671	      0.20665014	     -0.04648260	      0.18326021	      0.19188941	     -0.02860237	      0.13920659	      0.17712869	     -0.35754959	      1.01661250	      1.31351551	      0.00000000	      0.00000000	     12.63050430	      6.41601482	    -16.83595464	     37.72329468	    -18.98519462	     -4.66118485	     89.03582240	     74.64881772	     -8.27737219	     14.57743251	     -9.93034696	    -25.84225249	     10.13836880	    101.98773636	     88.56612693	    -10.89450979	      5.40618037
      4.10526316	     -1.42339575	     -2.72966119	     98.24287598	      0.05801206	      0.96395339	      0.24027399	     -1.37604531	     -1.89728695	    -23.04481795	     13.17630417	      0.22996989	     16.97511789	      4.00746078	      0.00000000	     -2.00090443	      2.05349381	      7.44848868	      8.78644074	      0.15335232	      8.09333846	     -9.75716702	      0.00000000	     -0.03994660	      0.08995679	      0.11464756	     -0.07418483	      0.11964253	      0.12181304	     -0.06562827	      0.21872095	      0.12181304	     -0.04565497	      0.21872095	      0.10031662	     -0.03709441	      0.18343989	      0.09315115	     -0.02282549	      0.13934307	      0.08598567	     -0.28533457	      1.01760924	      0.63763536	      0.00000000	      0.00000000	     13.01608140	      6.90213726	    -16.91029096	     37.76081973	    -18.94774140	     -4.43275380	     88.85600559	     72.87315899	     -7.43399464	     15.33797513	     -9.71920587	    -26.15365124	     10.11488422	    101.92092349	     88.73418558	    -11.16981207	      3.60622705
      4.12280702	     -1.44738348	     -2.58298263	     98.20421382	      0.05751797	      0.96377847	      0.23864766	     -1.73617147	     -1.94151687	    -23.00169545	     13.18083950	      0.23004905	     16.90881253	      4.08296438	      0.00000000	     -2.39649418	      2.09299818	      7.50849356	      8.67945005	      0.15148498	      8.32828170	     -9.55068618	      0.00000000	     -0.04161433	      0.09877736	     -0.02425511	     -0.07728197	      0.13137388	     -0.02577106	     -0.06836818	      0.24016726	     -0.02577106	     -0.04756102	      0.24016726	     -0.02122322	     -0.03864306	      0.20142678	     -0.01970728	     -0.02377843	      0.15300612	     -0.01819133	     -0.29724698	      1.11738920	     -0.13489966	      0.00000000	      0.00000000	     13.27051336	      7.15133959	    -16.54319896	     38.16277893	    -18.76435524	     -3.79377006	     88.48320426	     71.62726634	     -6.55320744	     16.08837744	     -9.96293215	    -26.31983745	      9.56701656	    102.26947632	     88.86876578	    -11.68550079	      2.59582369
      4.14035088	     -1.39880312	     -2.61922726	     98.10520854	      0.05707952	      0.96331415	      0.23706071	     -1.89388461	     -1.94915956	    -23.00069244	     13.16180673	      0.22971686	     16.85229599	      4.37682896	      0.00000000	     -2.60904672	      2.08943011	      7.50027022	      8.52935980	      0.14886541	      8.60222629	     -9.42276610	      0.00000000	     -0.02095642	      0.11734248	     -0.19275357	     -0.03891816	      0.15606550	     -0.20480067	     -0.03442930	      0.28530650	     -0.20480067	     -0.02395109	      0.28530650	     -0.16865937	     -0.01946013	      0.23928478	     -0.15661228	     -0.01197450	      0.18176350	     -0.14456518	     -0.14968958	      1.32740157	     -1.07203753	      0.00000000	      0.00000000	     13.32110676	      7.24109994	    -15.48144024	     38.73430649	    -18.31274319	     -2.90460052	     88.00183772	     70.68330968	     -5.76631047	     16.62423647	    -10.70339582	    -26.45250563	      8.67167463	    102.96382818	     88.94754484	    -12.17915853	      2.28575961
      4.15789474	     -1.30689336	     -2.67944973	     97.90362861	      0.05717961	      0.96292595	      0.23548046	     -1.95517348	     -1.90439592	    -23.02254262	     13.21553509	      0.23065460	     16.60719093	      4.48706307	      0.00000000	     -2.76083193	      2.02764838	      7.46592418	      8.42279680	      0.14700554	      8.85705002	     -9.48575039	      0.00000000	     -0.00398657	      0.13068204	     -0.23492511	     -0.00740346	      0.17380711	     -0.24960793	     -0.00654954	      0.31774031	     -0.24960793	     -0.00455625	      0.31774031	     -0.20555947	     -0.00370193	      0.26648681	     -0.19087665	     -0.00227793	      0.20242648	     -0.17619383	     -0.02847569	      1.47830135	     -1.30658299	      0.00000000	      0.00000000	     13.46799241	      7.17105877	    -15.21520516	     38.76518591	    -18.17001339	     -2.56689085	     88.06244589	     70.59472711	     -5.61102005	     16.65887961	    -10.99753119	    -26.86330073	      8.47053187	    103.56716261	     88.98946765	    -12.19112434	      2.27273742
      4.17543860	     -1.22613017	     -2.78025492	     97.83857975	      0.05679584	      0.96238569	      0.23386552	     -2.08398004	     -1.88421278	    -23.38207324	     13.11632414	      0.22892304	     16.69250478	      5.20930924	      0.00000000	     -2.92282008	      1.97787468	      7.36691675	      8.17431764	      0.14266876	      9.04782677	     -9.28692147	      0.00000000	      0.01655163	      0.15754062	     -0.53569389	      0.03073804	      0.20952903	     -0.56917476	      0.02719268	      0.38304427	     -0.56917476	      0.01891686	      0.38304427	     -0.46873216	      0.01536985	      0.32125684	     -0.43525129	      0.00945760	      0.24403043	     -0.40177042	      0.11822667	      1.78213105	     -2.97936874	      0.00000000	      0.00000000	     13.57665851	      7.54234490	    -12.67725018	     39.92456971	    -17.21019932	     -0.59564666	     86.92907683	     69.76887817	     -4.93456303	     16.31043216	    -13.20929836	    -26.33105327	      5.83943449	    105.02820160	     89.04136005	    -11.68261028	      3.73106146
      4.19298246	     -1.12934125	     -2.89748432	     97.51048607	      0.05714606	      0.96212329	      0.23227978	     -2.02184135	     -1.80819679	    -23.07200252	     13.15070679	      0.22952313	     16.62003051	      5.24656500	      0.00000000	     -3.07469625	      1.88610303	      6.84216560	      7.90194793	      0.13791501	      9.26175060	     -8.91518771	      0.00000000	      0.03749246	      0.17422059	     -0.61144771	      0.06962726	      0.23171339	     -0.64966319	      0.06159637	      0.42359995	     -0.64966319	      0.04285014	      0.42359995	     -0.53501675	      0.03481550	      0.35527063	     -0.49680127	      0.02142319	      0.26986770	     -0.45858578	      0.26780492	      1.97081820	     -3.40068874	      0.00000000	      0.00000000	     13.72899351	      7.44012809	    -11.92091374	     40.16266570	    -16.79207419	      0.16608878	     86.72044600	     70.63637927	     -4.68688283	     16.03183490	    -14.23995881	    -26.26458129	      4.84958052	    105.69454969	     89.05821678	    -11.47864149	      3.89395646
      4.21052632	     -0.98951977	     -2.98147000	     97.63729556	      0.05699543	      0.96209466	      0.23095920	     -2.03070102	     -1.70839737	    -23.70774040	     13.14639658	      0.22944791	     16.80504808	      6.12979672	      0.00000000	     -3.18265146	      1.76547430	      7.37587892	      7.63358826	      0.13323125	      9.17187503	     -9.65049861	      0.00000000	      0.05330320	      0.19067102	     -0.69350634	      0.09898937	      0.25359246	     -0.73685049	      0.08757183	      0.46359753	     -0.73685049	      0.06092023	      0.46359753	     -0.60681805	      0.04949735	      0.38881635	     -0.56347390	      0.03045745	      0.29534941	     -0.52012976	      0.38073942	      2.15690875	     -3.85707423	      0.00000000	      0.00000000	     13.95795265	      7.40473665	    -11.68436527	     40.11434046	    -16.82811586	      0.72892219	     86.85417060	     69.30929106	     -4.63427188	     16.13321028	    -14.64672952	    -26.37599888	      4.59914730	    105.89300630	     89.06920794	    -11.58070268	      3.39382106
      4.22807018	     -0.93529242	     -3.02390548	     97.67407274	      0.05734622	      0.96240027	      0.23013204	     -1.95380550	     -1.61664620	    -23.62967625	     13.17274856	      0.22990783	     16.91870269	      6.17673328	      0.00000000	     -3.19684384	      1.67858900	      7.30588294	      7.52522631	      0.13133998	      9.25102334	     -9.70640988	      0.00000000	      0.05620386	      0.19233577	     -0.72148841	      0.10437618	      0.25580657	     -0.76658143	      0.09233731	      0.46764519	     -0.76658143	      0.06423539	      0.46764519	     -0.63130235	      0.05219090	      0.39221110	     -0.58620933	      0.03211488	      0.29792811	     -0.54111630	      0.40145852	      2.17574070	     -4.01270207	      0.00000000	      0.00000000	     14.11507157	      7.36295806	    -11.70166984	     39.91245066	    -16.86301973	      0.85043488	     87.00058996	     69.29895194	     -4.57633534	     16.13711542	    -14.56302575	    -26.52040875	      4.52298950	    105.81421569	     89.07989584	    -11.59272445	      3.31051653
      4.24561404	     -0.72163345	     -3.23283053	     97.91495952	      0.05707508	      0.96238654	      0.22960420	     -1.57872315	     -1.42196302	    -23.58746085	     13.36426920	      0.23325050	     17.28923567	      6.13143011	      0.00000000	     -3.05387298	      1.44239114	      7.32954531	      7.20698142	      0.12578555	      9.44849917	     -9.32139944	      0.00000000	      0.07466157	      0.20981959	     -0.72668319	      0.13865401	      0.27906006	     -0.77210089	      0.12266150	      0.51015535	     -0.77210089	      0.08533071	      0.51015535	     -0.63584779	      0.06933074	      0.42786411	     -0.59043010	      0.04266162	      0.32501055	     -0.54501240	      0.53330016	      2.37352117	     -4.04159392	      0.00000000	      0.00000000	     14.85297350	      7.12342703	    -12.46804905	     39.53563329	    -17.49788080	      0.83532089	     87.49354741	     68.56414850	     -4.52563732	     16.19151601	    -14.09057335	    -26.65136599	      5.10341063	    105.20417333	     89.05760467	    -12.08367344	      0.55689888
      4.26315789	     -0.58394525	     -3.40895071	     98.04022391	      0.05728828	      0.96239888	      0.22940641	     -1.25170104	     -1.27039764	    -23.43006420	     13.44267411	      0.23461892	     17.77263492	      6.21497138	      0.00000000	     -2.89953290	      1.29027979	      7.44330180	      6.92045425	      0.12078471	      9.67398960	     -9.15139197	      0.00000000	      0.08129318	      0.21576523	     -0.75523629	      0.15096956	      0.28696775	     -0.80243856	      0.13355656	      0.52461158	     -0.80243856	      0.09290997	      0.52461158	     -0.66083175	      0.07548884	      0.43998845	     -0.61362948	      0.04645092	      0.33422034	     -0.56642722	      0.58066903	      2.44077942	     -4.20039767	      0.00000000	      0.00000000	     15.47825171	      7.17221156	    -12.55561953	     39.40139472	    -17.76590031	      0.84719913	     87.58553996	     68.45475596	     -4.52452397	     16.14404929	    -13.86138525	    -26.54155871	      4.95785434	    105.13135913	     89.04092432	    -12.32335898	      0.17302901
